<?xml version="1.0" standalone="no"?>
<svg xmlns="http://www.w3.org/2000/svg" viewBox="0 0 98 70" width="98" height="70"><g fill="#05cd51" color="#05cd51" transform="translate(26.564 0) scale(0.9166667) "><svg width="48.0" height="48.0" x="0.0" y="0.0" viewBox="0 0 48 48"><path fill="currentColor" fill-rule="evenodd" d="M21.088 35.003c-.108 0-.27 0-.432-.054-1.294-.27-1.294-1.403-1.348-2.212-.054-.862-.108-1.186-.54-1.887-.215-.324.054-.647.378-.647.054 0 .108 0 .216.054 1.402.7 3.344 1.887 3.29 3.182 0 .054-.216 1.564-1.564 1.564m-2.643-14.994c-.054.162-.162.27-.378.378a1.787 1.787 0 0 1-1.294 0c-.593-.27-1.133-.701-1.564-1.079-.701-.593-1.348-1.132-2.157-.97-.54.053-.971.377-1.349.97-.161.27-.27.594-.161.917.215.755 1.024 1.187 2.319 1.888 2.21 1.186 4.045 2.265 4.045 3.883v.431c0 .108-.054.162-.054.27 0 .054-.054.108-.054.162 0 .054-.054.108-.054.162-.054.107-.108.161-.216.27l-.162.161c-.431.324-1.024.485-1.564.485-.755 0-1.726-.323-1.887-1.294-.27-1.402-2.535-3.074-4.53-3.236-.972-.108-1.834.162-2.428.755l-.215.27c-.054.054-.108.162-.162.216-.054.107-.108.161-.162.27 0 .053-.054.053-.054.107-.054.054-.054.108-.108.216-.054 0-.054.054-.054.108-.054.054-.054.162-.054.215-.27 1.187 1.24 2.104 3.236 3.344 3.29 1.996 5.879 3.83 4.908 6.095-.216.485-.647.97-1.186 1.294a3.536 3.536 0 0 1-1.78.485c-1.24 0-2.265-.755-2.859-2.103-.593-1.348-1.294-2.05-2.103-2.05-.593 0-1.133.324-1.51.971-.162.378-.324.81-.324 1.295-1.833-3.236-2.912-7.011-2.912-10.949C1.618 11.596 11.649 1.564 24 1.564c1.672 0 3.344.162 4.962.54.593.162.809.54.917.863.161.539 0 1.186-.432 1.564-.377.377-.97.431-1.672.215-1.456-.431-2.912-.215-3.775.648-.593.593-.809 1.402-.54 2.157.216.647.918 1.726 3.29 2.157 1.834.324 3.183.216 4.854.108a54.109 54.109 0 0 1 3.29-.108c3.128 0 4.854 1.564 5.394 2.859.377.917.27 1.78-.324 2.373-1.186 1.186-4.207-.216-5.609-1.025-.162-.108-.27-.162-.431-.27-.378-.215-.863-.108-1.08.27-.215.378-.107.863.217 1.079.054.054.215.161.431.27 1.834 1.186 2.859 2.804 2.859 4.476 0 1.402-.755 2.642-2.05 3.451-1.025.594-1.941.648-2.643.054-.7-.593-.97-1.672-.593-2.696.378-1.133.216-2.212-.485-3.02-1.133-1.295-3.506-1.78-6.04-1.295-.162.054-.324.054-.432.108-.917.27-2.697.97-4.045 2.157-.485-1.618-2.157-2.642-3.506-3.397-.809-.486-1.887-1.133-1.887-1.51 0-.486.593-1.241 1.24-1.403.593-.162 1.133.216 1.618 1.025.755 1.348 2.157 2.265 3.398 2.157 1.025-.054 1.887-.647 2.373-1.726.377-.809.377-1.833.054-2.696-.27-.701-.917-1.618-2.427-2.212a.797.797 0 0 0-1.025.432.797.797 0 0 0 .432 1.025c.809.323 1.294.755 1.51 1.294.215.54.108 1.079 0 1.402-.216.54-.54.81-.971.81-.647.053-1.51-.54-1.942-1.349-1.186-2.103-2.804-1.942-3.397-1.78-1.349.324-2.481 1.672-2.481 2.966 0 1.295 1.294 2.05 2.642 2.859 1.996 1.186 3.236 2.05 2.75 3.613M23.947 0c1.834 0 3.614.216 5.34.594 1.078.215 1.833.97 2.103 1.995.27 1.079-.054 2.32-.863 3.128-.486.432-1.564 1.133-3.29.594-1.079-.324-1.834-.054-2.157.27-.108.107-.216.323-.162.539.108.377.701.862 2.05 1.078 1.671.27 2.912.216 4.476.108.97-.054 2.05-.108 3.397-.108 3.938 0 6.149 2.05 6.904 3.83.647 1.51.377 3.074-.647 4.098-1.025 1.025-2.481 1.079-3.884.755.54.917.81 1.888.81 2.913 0 1.995-1.025 3.775-2.859 4.854-1.564.97-3.236.97-4.476-.054-1.24-1.025-1.672-2.859-1.079-4.477.216-.593.108-1.078-.216-1.456-.72-.824-2.424-1.107-4.22-.802l-.256.047h-.054c-.054.054-.162.054-.216.108-1.186.54-2.48 3.236-2.373 6.256 0 1.672.432 5.77 4.369 7.227 1.78.701 3.505 1.025 5.123 1.025 2.75 0 5.07-.971 7.12-2.427 1.132-.755 2.21-1.726 3.235-2.697 2.178-2.333 3.708-4.966 4.014-6.891l.031-.228v-.054c0-.054.054-.108.054-.162 0 0 .03-.03.046-.068l.008-.04.108-.107.023-.023.085-.085s.054-.054.108-.054c.036 0 .072-.024.108-.04l.054-.014h.323c.054 0 .108.054.162.054 0 0 .03.03.068.045l.04.009.216.215s.053.054.053.108c0 .036.024.072.04.108l.014.054v.054c.216 1.348.324 2.157.324 3.667 0 12.868-10.202 23.41-23.07 23.881l-.39.012h-1.834c-1.618-.054-3.236-.27-4.746-.702-.122 0-.243-.03-.364-.068l-.122-.04h-.054c-.054 0-.108-.053-.162-.053C7.281 44.063 0 34.84 0 23.946 0 10.733 10.787-.054 23.946 0zm16.611 18.23c.378 0 .701.108 1.079.323 1.618 1.079 2.373 2.265 2.157 3.506 0 .108-.054.162-.054.216-.323.917-1.132 1.833-2.373 1.833-.27 0-.593-.054-.863-.161a2.387 2.387 0 0 1-1.51-1.618 3.42 3.42 0 0 1-.073-1.096l.02-.145v-.216c-.055 0-.055 0-.055-.054-.27-.539-.215-1.186.108-1.725.378-.54.917-.863 1.564-.863zm0 1.672c-.161 0-.27.161-.215.323.215.378.215.54.16 1.025-.053.431-.106 1.025.54 1.24a.687.687 0 0 0 .324.054c.594 0 .81-.7.81-.647.107-.701-.864-1.456-1.51-1.941 0-.054-.055-.054-.109-.054zM35.542 2.319c.754.108 3.073.378 3.667 2.104 0 .054.054.162.054.215.054.216.161 1.133-.432 1.942-.377.54-1.025.863-1.726.97h-.323c-.7 0-1.348-.269-1.834-.808-.323-.324-.485-.701-.593-.97v-.055c0-.054-.054-.108-.054-.108l-.054-.054c-.593-.431-.862-1.24-.647-1.995.216-.755.917-1.24 1.726-1.24zm-.162 1.564c-.216 0-.324.27-.216.378.378.27.485.431.648.809.161.377.376.863.97.863h.162c.868-.097.83-.84.812-.996l-.003-.029c-.216-.647-1.51-.917-2.373-1.025z"></path></svg></g><path fill="#05cd51" fill-rule="nonzero" d="M5.57 1.27L5.57 1.27Q7.13 1.27 8.22 1.80Q9.31 2.33 9.31 3.14L9.31 3.14Q9.31 3.50 9.13 3.77Q8.95 4.03 8.60 4.03Q8.26 4.03 7.10 3.49Q5.95 2.95 5.00 2.95Q4.06 2.95 3.05 3.55Q2.04 4.15 2.04 5.02L2.04 5.02Q2.04 6.19 3.26 6.74L3.26 6.74Q4.18 7.15 5.88 7.48Q7.58 7.80 8.66 8.80Q9.74 9.79 9.74 11.81L9.74 11.81Q9.74 14.88 7.90 16.34L7.90 16.34Q6.86 17.16 4.98 17.16Q3.10 17.16 1.22 16.13L1.22 16.13Q0 15.48 0 14.83L0 14.83Q0 14.59 0.20 14.30Q0.41 14.02 0.77 13.82Q1.13 13.63 1.43 13.76Q1.73 13.90 2.40 14.23Q3.07 14.57 3.38 14.69L3.38 14.69Q4.39 15.07 5.28 15.07Q6.17 15.07 7.00 14.20Q7.82 13.32 7.82 12.05L7.82 12.05Q7.82 10.37 6.14 9.70L6.14 9.70Q5.33 9.36 4.30 9.19L4.30 9.19Q2.16 8.81 1.08 7.91Q0 7.01 0 5.18Q0 3.36 1.56 2.32Q3.12 1.27 5.57 1.27ZM15.36 5.98L15.36 5.98Q17.09 5.98 18.20 7.63Q19.32 9.29 19.32 11.60Q19.32 13.92 18.18 15.55Q17.04 17.18 15.16 17.18Q13.27 17.18 12.12 15.52Q10.97 13.85 10.97 11.81L10.97 11.81Q10.97 9.19 12.02 7.63L12.02 7.63Q13.15 5.98 15.36 5.98ZM15.07 7.94L15.07 7.94Q14.06 7.94 13.42 9Q12.77 10.06 12.77 11.23L12.77 11.23Q12.77 13.06 13.49 14.02Q14.21 14.98 15.12 14.98L15.12 14.98Q16.75 14.98 17.21 13.56L17.21 13.56Q17.40 12.89 17.40 11.88L17.40 11.88Q17.40 7.94 15.07 7.94ZM20.45 11.54Q20.45 9.94 21.30 8.62Q22.15 7.30 23.47 6.64Q24.79 5.98 26.04 5.98Q27.29 5.98 28.04 6.28Q28.80 6.58 28.80 7.07Q28.80 7.56 28.52 8.05Q28.25 8.54 27.79 8.54L27.79 8.54Q27.62 8.54 26.87 8.27Q26.11 7.99 25.90 7.99L25.90 7.99Q24.50 7.99 23.52 9.01Q22.54 10.03 22.54 11.71Q22.54 13.39 23.08 14.22Q23.62 15.05 24.94 15.05L24.94 15.05Q25.46 15.05 26.75 14.44Q28.03 13.82 28.34 13.82Q28.66 13.82 28.85 14.02Q29.04 14.21 29.04 14.50L29.04 14.50Q29.04 15.07 28.31 15.71Q27.58 16.34 26.50 16.76Q25.42 17.18 24.55 17.18L24.55 17.18Q22.63 17.18 21.54 15.67Q20.45 14.16 20.45 11.54L20.45 11.54ZM31.68 1.99L31.68 1.99Q32.11 1.99 32.50 2.40Q32.88 2.81 32.88 3.25Q32.88 3.70 32.46 4.15Q32.04 4.61 31.58 4.61Q31.13 4.61 30.76 4.22Q30.38 3.84 30.38 3.24L30.38 3.24Q30.38 2.09 31.63 1.99L31.63 1.99Q31.66 1.99 31.68 1.99ZM32.69 9.19L32.69 14.57L32.71 16.25Q32.71 16.70 32.35 17.00Q31.99 17.30 31.58 17.30L31.58 17.30Q30.98 17.30 30.96 16.70L30.96 16.70Q30.65 9.05 30.65 8.23Q30.65 7.42 30.72 6.24L30.72 6.24Q30.77 5.81 31.27 5.81L31.27 5.81Q32.54 5.81 32.71 6.84L32.71 6.84Q32.78 7.37 32.78 7.68L32.78 7.68L32.69 9.19ZM42.17 5.95L42.17 5.95Q43.22 5.95 43.22 7.75L43.22 7.75Q43.22 7.94 43.22 8.16L43.22 8.16L43.18 9.84Q43.15 10.63 43.15 11.40L43.15 11.40L43.51 16.82Q43.51 17.42 42.29 17.42L42.29 17.42Q42.22 17.42 41.94 17.42Q41.66 17.42 41.56 17.21Q41.45 16.99 41.53 16.68Q41.62 16.37 41.47 15.98L41.47 15.98Q40.37 17.16 38.54 17.16L38.54 17.16Q35.16 17.16 35.16 11.93L35.16 11.93Q35.16 9.02 36.25 7.54Q37.34 6.05 39.38 6.05L39.38 6.05Q40.34 6.05 41.30 6.38L41.30 6.38Q41.62 5.95 42.17 5.95ZM39.67 8.14L39.67 8.14Q38.30 8.14 37.63 8.93Q36.96 9.72 36.96 11.83L36.96 11.83Q36.96 15.38 38.88 15.38L38.88 15.38Q39.38 15.38 40.00 14.93Q40.61 14.47 40.85 13.90L40.85 13.90Q41.30 12.60 41.30 11.06Q41.30 9.53 40.93 8.83Q40.56 8.14 39.67 8.14ZM44.82 1.62Q44.88 0.72 45.11 0.44Q45.34 0.17 45.84 0.17L45.84 0.17Q46.87 0.17 46.87 1.01L46.87 1.01Q46.87 1.66 46.76 4.39Q46.66 7.13 46.66 9.29Q46.66 11.45 46.82 12.77L46.82 12.77Q47.11 15.07 47.64 15.07Q48.17 15.07 48.43 14.33L48.43 14.33Q48.55 14.04 48.82 13.81Q49.08 13.58 49.49 13.58L49.49 13.58Q50.33 13.58 50.33 15L50.33 15Q50.33 15.77 49.50 16.52Q48.67 17.28 47.86 17.28Q47.04 17.28 46.55 17.00Q46.06 16.73 45.76 16.18Q45.46 15.62 45.28 15.11Q45.10 14.59 45.02 13.85L45.02 13.85Q44.88 12.65 44.82 10.00Q44.76 7.34 44.76 4.93Q44.76 2.52 44.82 1.62ZM63.94 1.46L63.94 1.46Q65.54 1.46 67.49 2.09L67.49 2.09Q67.92 2.42 67.92 2.82Q67.92 3.22 67.52 3.52Q67.13 3.82 66.62 3.82L66.62 3.82Q65.33 3.48 64.20 3.48L64.20 3.48Q61.61 3.48 60.26 5.02Q58.92 6.55 58.92 9.58Q58.92 12.60 60.50 14.30L60.50 14.30Q61.32 15.19 62.45 15.19Q63.58 15.19 66.05 13.99L66.05 13.99Q66.91 13.58 67.20 13.58L67.20 13.58Q67.82 13.58 67.82 14.23Q67.82 14.88 67.22 15.31L67.22 15.31Q65.16 16.39 64.01 16.76Q62.86 17.14 62.02 17.14L62.02 17.14Q60.29 17.14 59.06 15.86L59.06 15.86Q56.88 13.51 56.88 9.44Q56.88 5.38 58.96 3.42Q61.03 1.46 63.94 1.46ZM74.18 5.98L74.18 5.98Q75.91 5.98 77.03 7.63Q78.14 9.29 78.14 11.60Q78.14 13.92 77.00 15.55Q75.86 17.18 73.98 17.18Q72.10 17.18 70.94 15.52Q69.79 13.85 69.79 11.81L69.79 11.81Q69.79 9.19 70.85 7.63L70.85 7.63Q71.98 5.98 74.18 5.98ZM73.90 7.94L73.90 7.94Q72.89 7.94 72.24 9Q71.59 10.06 71.59 11.23L71.59 11.23Q71.59 13.06 72.31 14.02Q73.03 14.98 73.94 14.98L73.94 14.98Q75.58 14.98 76.03 13.56L76.03 13.56Q76.22 12.89 76.22 11.88L76.22 11.88Q76.22 7.94 73.90 7.94ZM85.34 5.93L85.34 5.93L85.32 1.30Q85.32 0 86.15 0Q86.98 0 87.07 0.72L87.07 0.72Q87.12 1.03 87.19 4.49Q87.26 7.94 87.42 10.97Q87.58 13.99 87.58 16.61L87.58 16.61Q87.58 17.33 86.50 17.33L86.50 17.33Q85.78 17.33 85.78 16.32L85.78 16.32Q84.74 17.14 83.33 17.14L83.33 17.14Q81.53 17.14 80.41 15.79Q79.30 14.45 79.30 12.48Q79.30 10.51 80.10 8.80Q80.90 7.08 82.61 6.34L82.61 6.34Q83.66 5.88 84.65 5.88L84.65 5.88Q85.01 5.88 85.34 5.93ZM85.48 9.20Q85.30 8.69 85.06 8.41Q84.82 8.14 84.54 8.08Q84.26 8.02 83.88 8.02Q83.50 8.02 82.94 8.30Q82.39 8.59 82.01 9.24L82.01 9.24Q81.24 10.54 81.24 11.96Q81.24 13.39 81.80 14.29Q82.37 15.19 83.41 15.19Q84.46 15.19 85.06 14.16Q85.66 13.13 85.66 11.52L85.66 11.52Q85.66 9.72 85.48 9.20ZM92.42 6.05L92.42 6.05Q93.70 6.05 94.85 6.79Q96 7.54 96 8.63Q96 9.72 95.06 10.74Q94.13 11.76 92.57 11.98L92.57 11.98Q91.90 12.07 90.55 12.07L90.55 12.07Q90.82 14.11 91.58 14.76L91.58 14.76Q91.82 15.02 92.23 15.02L92.23 15.02Q93.72 15.02 94.73 14.08Q95.74 13.13 96.17 13.13L96.17 13.13Q96.36 13.13 96.74 13.49Q97.13 13.85 97.13 14.16L97.13 14.16Q97.13 14.78 95.62 15.96L95.62 15.96Q94.94 16.51 94.00 16.88Q93.05 17.26 92.23 17.26L92.23 17.26Q90.14 17.26 89.16 14.57L89.16 14.57Q88.54 12.91 88.54 10.92Q88.54 8.93 89.47 7.49Q90.41 6.05 92.42 6.05ZM92.54 7.70L92.54 7.70Q91.63 7.70 90.98 8.74L90.98 8.74Q90.74 9.10 90.53 10.37L90.53 10.37Q93.89 10.37 93.89 8.71L93.89 8.71Q93.89 7.70 92.54 7.70Z" transform="translate(0, 52)"></path></svg>