<?xml version="1.0" standalone="no"?>
<svg xmlns="http://www.w3.org/2000/svg" viewBox="0 0 215.54761710794298 96.70761710794298" width="215.54761710794298" height="96.70761710794298"><rect fill="#05cd51" width="215.54761710794298" height="96.70761710794298" x="0" y="0"></rect><g fill="white" color="white" transform="translate(130.84 12) scale(1.5147421)"><svg width="48.0" height="48.0" x="0.0" y="0.0" viewBox="0 0 48 48"><path fill="currentColor" fill-rule="evenodd" d="M21.088 35.003c-.108 0-.27 0-.432-.054-1.294-.27-1.294-1.403-1.348-2.212-.054-.862-.108-1.186-.54-1.887-.215-.324.054-.647.378-.647.054 0 .108 0 .216.054 1.402.7 3.344 1.887 3.29 3.182 0 .054-.216 1.564-1.564 1.564m-2.643-14.994c-.054.162-.162.27-.378.378a1.787 1.787 0 0 1-1.294 0c-.593-.27-1.133-.701-1.564-1.079-.701-.593-1.348-1.132-2.157-.97-.54.053-.971.377-1.349.97-.161.27-.27.594-.161.917.215.755 1.024 1.187 2.319 1.888 2.21 1.186 4.045 2.265 4.045 3.883v.431c0 .108-.054.162-.054.27 0 .054-.054.108-.054.162 0 .054-.054.108-.054.162-.054.107-.108.161-.216.27l-.162.161c-.431.324-1.024.485-1.564.485-.755 0-1.726-.323-1.887-1.294-.27-1.402-2.535-3.074-4.53-3.236-.972-.108-1.834.162-2.428.755l-.215.27c-.054.054-.108.162-.162.216-.054.107-.108.161-.162.27 0 .053-.054.053-.054.107-.054.054-.054.108-.108.216-.054 0-.054.054-.054.108-.054.054-.054.162-.054.215-.27 1.187 1.24 2.104 3.236 3.344 3.29 1.996 5.879 3.83 4.908 6.095-.216.485-.647.97-1.186 1.294a3.536 3.536 0 0 1-1.78.485c-1.24 0-2.265-.755-2.859-2.103-.593-1.348-1.294-2.05-2.103-2.05-.593 0-1.133.324-1.51.971-.162.378-.324.81-.324 1.295-1.833-3.236-2.912-7.011-2.912-10.949C1.618 11.596 11.649 1.564 24 1.564c1.672 0 3.344.162 4.962.54.593.162.809.54.917.863.161.539 0 1.186-.432 1.564-.377.377-.97.431-1.672.215-1.456-.431-2.912-.215-3.775.648-.593.593-.809 1.402-.54 2.157.216.647.918 1.726 3.29 2.157 1.834.324 3.183.216 4.854.108a54.109 54.109 0 0 1 3.29-.108c3.128 0 4.854 1.564 5.394 2.859.377.917.27 1.78-.324 2.373-1.186 1.186-4.207-.216-5.609-1.025-.162-.108-.27-.162-.431-.27-.378-.215-.863-.108-1.08.27-.215.378-.107.863.217 1.079.054.054.215.161.431.27 1.834 1.186 2.859 2.804 2.859 4.476 0 1.402-.755 2.642-2.05 3.451-1.025.594-1.941.648-2.643.054-.7-.593-.97-1.672-.593-2.696.378-1.133.216-2.212-.485-3.02-1.133-1.295-3.506-1.78-6.04-1.295-.162.054-.324.054-.432.108-.917.27-2.697.97-4.045 2.157-.485-1.618-2.157-2.642-3.506-3.397-.809-.486-1.887-1.133-1.887-1.51 0-.486.593-1.241 1.24-1.403.593-.162 1.133.216 1.618 1.025.755 1.348 2.157 2.265 3.398 2.157 1.025-.054 1.887-.647 2.373-1.726.377-.809.377-1.833.054-2.696-.27-.701-.917-1.618-2.427-2.212a.797.797 0 0 0-1.025.432.797.797 0 0 0 .432 1.025c.809.323 1.294.755 1.51 1.294.215.54.108 1.079 0 1.402-.216.54-.54.81-.971.81-.647.053-1.51-.54-1.942-1.349-1.186-2.103-2.804-1.942-3.397-1.78-1.349.324-2.481 1.672-2.481 2.966 0 1.295 1.294 2.05 2.642 2.859 1.996 1.186 3.236 2.05 2.75 3.613M23.947 0c1.834 0 3.614.216 5.34.594 1.078.215 1.833.97 2.103 1.995.27 1.079-.054 2.32-.863 3.128-.486.432-1.564 1.133-3.29.594-1.079-.324-1.834-.054-2.157.27-.108.107-.216.323-.162.539.108.377.701.862 2.05 1.078 1.671.27 2.912.216 4.476.108.97-.054 2.05-.108 3.397-.108 3.938 0 6.149 2.05 6.904 3.83.647 1.51.377 3.074-.647 4.098-1.025 1.025-2.481 1.079-3.884.755.54.917.81 1.888.81 2.913 0 1.995-1.025 3.775-2.859 4.854-1.564.97-3.236.97-4.476-.054-1.24-1.025-1.672-2.859-1.079-4.477.216-.593.108-1.078-.216-1.456-.72-.824-2.424-1.107-4.22-.802l-.256.047h-.054c-.054.054-.162.054-.216.108-1.186.54-2.48 3.236-2.373 6.256 0 1.672.432 5.77 4.369 7.227 1.78.701 3.505 1.025 5.123 1.025 2.75 0 5.07-.971 7.12-2.427 1.132-.755 2.21-1.726 3.235-2.697 2.178-2.333 3.708-4.966 4.014-6.891l.031-.228v-.054c0-.054.054-.108.054-.162 0 0 .03-.03.046-.068l.008-.04.108-.107.023-.023.085-.085s.054-.054.108-.054c.036 0 .072-.024.108-.04l.054-.014h.323c.054 0 .108.054.162.054 0 0 .03.03.068.045l.04.009.216.215s.053.054.053.108c0 .036.024.072.04.108l.014.054v.054c.216 1.348.324 2.157.324 3.667 0 12.868-10.202 23.41-23.07 23.881l-.39.012h-1.834c-1.618-.054-3.236-.27-4.746-.702-.122 0-.243-.03-.364-.068l-.122-.04h-.054c-.054 0-.108-.053-.162-.053C7.281 44.063 0 34.84 0 23.946 0 10.733 10.787-.054 23.946 0zm16.611 18.23c.378 0 .701.108 1.079.323 1.618 1.079 2.373 2.265 2.157 3.506 0 .108-.054.162-.054.216-.323.917-1.132 1.833-2.373 1.833-.27 0-.593-.054-.863-.161a2.387 2.387 0 0 1-1.51-1.618 3.42 3.42 0 0 1-.073-1.096l.02-.145v-.216c-.055 0-.055 0-.055-.054-.27-.539-.215-1.186.108-1.725.378-.54.917-.863 1.564-.863zm0 1.672c-.161 0-.27.161-.215.323.215.378.215.54.16 1.025-.053.431-.106 1.025.54 1.24a.687.687 0 0 0 .324.054c.594 0 .81-.7.81-.647.107-.701-.864-1.456-1.51-1.941 0-.054-.055-.054-.109-.054zM35.542 2.319c.754.108 3.073.378 3.667 2.104 0 .054.054.162.054.215.054.216.161 1.133-.432 1.942-.377.54-1.025.863-1.726.97h-.323c-.7 0-1.348-.269-1.834-.808-.323-.324-.485-.701-.593-.97v-.055c0-.054-.054-.108-.054-.108l-.054-.054c-.593-.431-.862-1.24-.647-1.995.216-.755.917-1.24 1.726-1.24zm-.162 1.564c-.216 0-.324.27-.216.378.378.27.485.431.648.809.161.377.376.863.97.863h.162c.868-.097.83-.84.812-.996l-.003-.029c-.216-.647-1.51-.917-2.373-1.025z"></path></svg></g><path fill="white" fill-rule="nonzero" d="M9.28 0.12L9.28 0.12Q11.88 0.12 13.70 1Q15.52 1.88 15.52 3.24L15.52 3.24Q15.52 3.84 15.22 4.28Q14.92 4.72 14.34 4.72Q13.76 4.72 11.84 3.82Q9.92 2.92 8.34 2.92Q6.76 2.92 5.08 3.92Q3.40 4.92 3.40 6.36L3.40 6.36Q3.40 8.32 5.44 9.24L5.44 9.24Q6.96 9.92 9.80 10.46Q12.64 11.00 14.44 12.66Q16.24 14.32 16.24 17.68L16.24 17.68Q16.24 22.80 13.16 25.24L13.16 25.24Q11.44 26.60 8.30 26.60Q5.16 26.60 2.04 24.88L2.04 24.88Q0 23.80 0 22.72L0 22.72Q0 22.32 0.34 21.84Q0.68 21.36 1.28 21.04Q1.88 20.72 2.38 20.94Q2.88 21.16 4 21.72Q5.12 22.28 5.64 22.48L5.64 22.48Q7.32 23.12 8.80 23.12Q10.28 23.12 11.66 21.66Q13.04 20.20 13.04 18.08L13.04 18.08Q13.04 15.28 10.24 14.16L10.24 14.16Q8.88 13.60 7.16 13.32L7.16 13.32Q3.60 12.68 1.80 11.18Q0 9.68 0 6.64Q0 3.60 2.60 1.86Q5.20 0.12 9.28 0.12ZM29.24 0L29.24 0Q32.04 0 34 1.80L34 1.80Q37.84 5.24 37.84 12.66Q37.84 20.08 33.60 24.32L33.60 24.32Q31.40 26.44 28.52 26.64L28.52 26.64Q24.72 26.64 22.60 24.04Q20.48 21.44 19.58 18.22Q18.68 15.00 18.68 12.00L18.68 12.00Q18.68 6.88 21.12 3.56L21.12 3.56Q23.68 0 29.24 0ZM28.96 3.32L28.96 3.32Q23.60 3.32 22.28 8.40L22.28 8.40Q21.88 9.76 21.88 11.88Q21.88 14.00 22.68 16.80L22.68 16.80Q23.76 20.56 25.88 22.08L25.88 22.08Q27.12 23.04 28.88 23.04Q30.64 23.04 32.04 21.46Q33.44 19.88 33.96 17.44Q34.48 15.00 34.48 12.52L34.48 12.52Q34.48 8.12 33.22 5.72Q31.96 3.32 28.96 3.32ZM52.68 0.44L52.68 0.44Q55.36 0.44 58.60 1.48L58.60 1.48Q59.32 2.04 59.32 2.70Q59.32 3.36 58.66 3.86Q58 4.36 57.16 4.36L57.16 4.36Q55 3.80 53.12 3.80L53.12 3.80Q48.80 3.80 46.56 6.36Q44.32 8.92 44.32 13.96Q44.32 19 46.96 21.84L46.96 21.84Q48.32 23.32 50.20 23.32Q52.08 23.32 56.20 21.32L56.20 21.32Q57.64 20.64 58.12 20.64L58.12 20.64Q59.16 20.64 59.16 21.72Q59.16 22.80 58.16 23.52L58.16 23.52Q54.72 25.32 52.80 25.94Q50.88 26.56 49.48 26.56L49.48 26.56Q46.60 26.56 44.56 24.44L44.56 24.44Q40.92 20.52 40.92 13.74Q40.92 6.96 44.38 3.70Q47.84 0.44 52.68 0.44ZM65.14 1.16Q65.76 0.76 66.56 0.76Q67.36 0.76 67.56 1.68L67.56 1.68Q67.60 6.32 67.72 15.56L67.72 15.56Q67.72 21.20 67.40 25.12L67.40 25.12Q67.32 25.72 66.66 26.18Q66 26.64 65.32 26.64L65.32 26.64Q64.20 26.64 64.20 25.48L64.20 25.48Q64.60 21.48 64.60 15.56L64.60 15.56L64.36 2.12Q64.52 1.56 65.14 1.16ZM80.92 0.24L80.92 0.24Q81.92 0.24 82.60 1.12Q83.28 2 84.36 4.76L84.36 4.76Q86.88 11.28 89.28 25.20L89.28 25.20Q89.32 25.36 89.32 25.66Q89.32 25.96 88.94 26.30Q88.56 26.64 87.86 26.64Q87.16 26.64 86.68 26.30Q86.20 25.96 86.04 25.18Q85.88 24.40 85.44 22.12L85.44 22.12Q84.48 17.04 84.16 16.84L84.16 16.84Q83.68 16.56 80.98 16.24Q78.28 15.92 77.40 15.92Q76.52 15.92 76.36 16.08L76.36 16.08Q75.64 16.72 74.40 25.80L74.40 25.80Q74.24 26.56 72.88 26.56Q71.52 26.56 71.52 25.40L71.52 25.40Q71.52 22.52 73.64 14.40Q75.76 6.28 77.16 3.64L77.16 3.64Q78.92 0.24 80.92 0.24ZM80.76 4.68L80.76 4.68Q80.16 4.68 78.68 8.22Q77.20 11.76 77.20 12.60L77.20 12.60Q77.20 12.80 77.28 12.88L77.28 12.88Q77.60 13.20 79.80 13.44Q82 13.68 82.72 13.68Q83.44 13.68 83.52 13.58Q83.60 13.48 83.60 12.94Q83.60 12.40 82.52 8.54Q81.44 4.68 80.76 4.68ZM91.16 21.04L91.16 21.04L91.20 17.92L91.56 1.20Q91.56 0.72 92.08 0.44Q92.60 0.16 93.40 0.16L93.40 0.16Q95.32 0.16 95.32 1.52L95.32 1.52Q95.32 1.96 94.86 8.24Q94.40 14.52 94.40 15.76L94.40 15.76Q94.40 15.76 94.40 20L94.40 20Q94.40 23 94.80 23.28L94.80 23.28Q95.40 23.48 96.20 23.48L96.20 23.48L101.96 23.08Q103.84 23.08 103.84 24.44L103.84 24.44Q103.84 25.52 102.82 26.02Q101.80 26.52 100.80 26.58Q99.80 26.64 98.36 26.64L98.36 26.64Q92.08 26.64 91.56 26.24L91.56 26.24Q91.28 26 91.24 24.42Q91.20 22.84 91.18 22.20Q91.16 21.56 91.16 21.04Z" transform="translate(12 12) scale(1)"></path><path fill="white" fill-rule="nonzero" d="M11.76 0.44L11.76 0.44Q14.44 0.44 17.68 1.48L17.68 1.48Q18.40 2.04 18.40 2.70Q18.40 3.36 17.74 3.86Q17.08 4.36 16.24 4.36L16.24 4.36Q14.08 3.80 12.20 3.80L12.20 3.80Q7.88 3.80 5.64 6.36Q3.40 8.92 3.40 13.96Q3.40 19 6.04 21.84L6.04 21.84Q7.40 23.32 9.28 23.32Q11.16 23.32 15.28 21.32L15.28 21.32Q16.72 20.64 17.20 20.64L17.20 20.64Q18.24 20.64 18.24 21.72Q18.24 22.80 17.24 23.52L17.24 23.52Q13.80 25.32 11.88 25.94Q9.96 26.56 8.56 26.56L8.56 26.56Q5.68 26.56 3.64 24.44L3.64 24.44Q0 20.52 0 13.74Q0 6.96 3.46 3.70Q6.92 0.44 11.76 0.44ZM32.48 0L32.48 0Q35.28 0 37.24 1.80L37.24 1.80Q41.08 5.24 41.08 12.66Q41.08 20.08 36.84 24.32L36.84 24.32Q34.64 26.44 31.76 26.64L31.76 26.64Q27.96 26.64 25.84 24.04Q23.72 21.44 22.82 18.22Q21.92 15.00 21.92 12.00L21.92 12.00Q21.92 6.88 24.36 3.56L24.36 3.56Q26.92 0 32.48 0ZM32.20 3.32L32.20 3.32Q26.84 3.32 25.52 8.40L25.52 8.40Q25.12 9.76 25.12 11.88Q25.12 14.00 25.92 16.80L25.92 16.80Q27 20.56 29.12 22.08L29.12 22.08Q30.36 23.04 32.12 23.04Q33.88 23.04 35.28 21.46Q36.68 19.88 37.20 17.44Q37.72 15.00 37.72 12.52L37.72 12.52Q37.72 8.12 36.46 5.72Q35.20 3.32 32.20 3.32ZM45.36 27.72L44.84 25.32Q44.24 24.88 44.24 24.34Q44.24 23.80 44.68 23.44L44.68 23.44Q43.92 17.72 43.92 10.32L43.92 10.32Q43.92 8.08 44.12 1.60L44.12 1.60Q44.32 1 44.94 0.56Q45.56 0.12 46.12 0.12Q46.68 0.12 46.80 0.16L46.80 0.16Q52.52 1.76 56.76 6.34Q61 10.92 61.20 17.32L61.20 17.32Q61.20 24.36 55.36 26.16L55.36 26.16Q53.68 26.68 51.82 26.68Q49.96 26.68 48.56 26.40L48.56 26.40Q48.72 26.72 48.72 27.26Q48.72 27.80 48.06 28.30Q47.40 28.80 46.50 28.80Q45.60 28.80 45.36 27.72L45.36 27.72ZM47.24 10L47.24 10Q47.24 17 48.04 23.28L48.04 23.28Q49.00 23.56 51.28 23.56Q53.56 23.56 55.66 22.80Q57.76 22.04 57.88 20.56L57.88 20.56Q58 19.44 58 18.84L58 18.84Q58 13.64 55.22 9.64Q52.44 5.64 47.44 3.56L47.44 3.56Q47.24 8.28 47.24 10ZM63.84 18.72L63.68 12.84Q63.12 12.48 63.12 11.80Q63.12 11.12 63.56 10.56L63.56 10.56Q63.40 6.56 63.40 2.12L63.40 2.12Q63.64 1.16 64.14 0.72Q64.64 0.28 65.60 0.16L65.60 0.16Q70.88 0.40 77.04 0.40L77.04 0.40Q78.56 0.72 78.56 1.72L78.56 1.72Q78.56 3.40 75.28 3.68L75.28 3.68Q74.40 3.72 73.36 3.72L73.36 3.72L70.76 3.72Q70 3.72 66.56 3.40L66.56 3.40Q66.56 8.40 66.72 10.28L66.72 10.28Q68.84 10.32 74.88 10.32L74.88 10.32Q76.32 10.60 76.32 11.62Q76.32 12.64 75.16 13.20L75.16 13.20Q75.04 13.28 74.72 13.36L74.72 13.36L67.80 13.24Q67.16 13.24 66.76 13.32L66.76 13.32L66.92 20.20Q66.92 22.52 66.80 23.52L66.80 23.52L76.08 23.40Q77.36 23.60 77.36 24.48L77.36 24.48Q77.36 25.08 76.82 25.68Q76.28 26.28 75.56 26.44L75.56 26.44L65.32 26.60Q64.40 26.60 64.04 26.26Q63.68 25.92 63.68 25.12L63.68 25.12Q63.84 24 63.84 21.52L63.84 21.52L63.84 18.72Z" transform="translate(12 46.64) scale(1.322)"></path></svg>