<svg class="Icon_awesome-facebook-messenge" viewBox="0.563 0.562 97.457 87.08">
		<path id="Icon_awesome-facebook-messenge" d="M 49.39931106567383 0.5624999403953552 C 21.88525772094727 0.5624999403953552 0.5625 18.53069877624512 0.5625 42.80023193359375 C 0.5625 55.49419784545898 6.400125503540039 66.46403503417969 15.90223217010498 74.04179382324219 C 17.54289627075195 75.3603515625 17.2049388885498 76.12409210205078 17.48394966125488 84.26543426513672 C 17.5285530090332 85.42330169677734 18.21194839477539 86.48628997802734 19.30885124206543 87.10398864746094 C 20.4057559967041 87.72168731689453 21.77379989624023 87.81391143798828 22.96200370788574 87.35027313232422 C 33.35812377929688 83.2593994140625 33.49173736572266 82.93635559082031 35.25422286987305 83.36475372314453 C 65.37369537353516 90.77220153808594 98.01999664306641 73.54843139648438 98.01999664306641 42.80023193359375 C 98.01999664306641 18.53069877624512 76.91534423828125 0.5624999403953552 49.39931106567383 0.5624999403953552 Z M 78.72301483154297 33.06643676757813 L 64.37947082519531 53.35747146606445 C 63.28448867797852 54.89992904663086 61.51949310302734 55.96469497680664 59.50912475585938 56.29558181762695 C 57.49875640869141 56.62646865844727 55.42502212524414 56.19352722167969 53.786865234375 55.10091018676758 L 42.37490844726563 47.4687385559082 C 41.32697677612305 46.76644515991211 39.88607025146484 46.76644515991211 38.83813858032227 47.4687385559082 L 23.4394645690918 57.90483093261719 C 21.38421058654785 59.2971305847168 18.69234085083008 57.09719467163086 20.07757377624512 55.15359115600586 L 34.42111587524414 34.86255645751953 C 35.51569747924805 33.31966781616211 37.28073883056641 32.25454330444336 39.29129409790039 31.92362403869629 C 41.30184936523438 31.59270668029785 43.37576675415039 32.02597045898438 45.01372909545898 33.11911010742188 L 56.4217529296875 40.74953842163086 C 57.46968078613281 41.45183563232422 58.91058731079102 41.45183563232422 59.95851516723633 40.74953842163086 L 75.36505126953125 30.3239803314209 C 77.41637420654297 28.92290496826172 80.10824584960938 31.12108421325684 78.72301483154297 33.06644058227539 Z">
		</path>
	</svg>